<svg width="30" height="30" fill="none" xmlns="http://www.w3.org/2000/svg"><path d="M15 11.095A3.914 3.914 0 0 0 11.095 15 3.914 3.914 0 0 0 15 18.905 3.914 3.914 0 0 0 18.905 15 3.914 3.914 0 0 0 15 11.095ZM26.713 15c0-1.617.014-3.22-.076-4.834-.091-1.875-.519-3.54-1.89-4.91-1.374-1.374-3.035-1.799-4.91-1.89-1.617-.09-3.22-.076-4.834-.076-1.617 0-3.22-.015-4.834.076-1.875.091-3.54.519-4.91 1.89-1.374 1.374-1.8 3.035-1.89 4.91-.09 1.617-.076 3.22-.076 4.834 0 1.614-.015 3.22.076 4.834.09 1.875.519 3.539 1.89 4.91 1.374 1.374 3.035 1.799 4.91 1.89 1.617.09 3.22.076 4.834.076 1.617 0 3.22.015 4.834-.076 1.875-.091 3.539-.519 4.91-1.89 1.374-1.374 1.799-3.035 1.89-4.91.093-1.614.076-3.217.076-4.834ZM15 21.009A6 6 0 0 1 8.99 15 6 6 0 0 1 15 8.991 6 6 0 0 1 21.009 15a6 6 0 0 1-6.01 6.009Zm6.255-10.86a1.402 1.402 0 0 1-1.403-1.404c0-.776.626-1.403 1.403-1.403a1.402 1.402 0 0 1 .993 2.396 1.402 1.402 0 0 1-.993.41Z" fill="#252525"/></svg>