<svg width="20" height="20" fill="none" xmlns="http://www.w3.org/2000/svg"><path d="M19 7.75h-1.5a5.256 5.256 0 0 0-5.25-5.25V1A6.758 6.758 0 0 1 19 7.75Zm-1.5 12h-.128C2.635 18.902.543 6.468.25 2.672A2.25 2.25 0 0 1 2.5.25h3.953a1.5 1.5 0 0 1 1.395.945L8.988 4a1.5 1.5 0 0 1-.33 1.62L7.06 7.232a7.02 7.02 0 0 0 5.685 5.7l1.628-1.612A1.5 1.5 0 0 1 16 11.012l2.828 1.133a1.5 1.5 0 0 1 .922 1.395v3.96a2.25 2.25 0 0 1-2.25 2.25Zm-15-18a.75.75 0 0 0-.75.81C2.095 7 4.308 17.5 17.455 18.25a.75.75 0 0 0 .794-.703l.001-.047v-3.96l-2.828-1.132-2.152 2.137-.36-.045C6.385 13.682 5.5 7.157 5.5 7.09l-.045-.36 2.13-2.153L6.46 1.75H2.5Z" fill="#252525"/></svg>